#N canvas 172 228 1160 491 10;
#X obj 132 155 line~;
#X msg 132 132 \$1 5;
#X obj 72 171 *~;
#X obj 73 142 osc~;
#X obj 5 5 loadbang;
#X obj 4 27 s init;
#X obj 73 71 r init;
#X msg 73 93 60;
#X obj 73 118 mtof;
#X obj 931 392 dac~;
#X obj 132 110 r pdringmod0;
#X obj 72 198 *~ 0.1;
#X obj 287 158 line~;
#X msg 287 135 \$1 5;
#X obj 227 174 *~;
#X obj 228 145 osc~;
#X obj 228 121 mtof;
#X obj 227 201 *~ 0.1;
#X obj 228 73 r init;
#X obj 440 151 line~;
#X msg 440 128 \$1 5;
#X obj 380 167 *~;
#X obj 381 138 osc~;
#X obj 381 67 r init;
#X obj 381 114 mtof;
#X obj 380 194 *~ 0.1;
#X obj 595 154 line~;
#X msg 595 131 \$1 5;
#X obj 535 170 *~;
#X obj 536 141 osc~;
#X obj 536 117 mtof;
#X obj 535 197 *~ 0.1;
#X obj 536 69 r init;
#X obj 748 150 line~;
#X msg 748 127 \$1 5;
#X obj 688 166 *~;
#X obj 689 137 osc~;
#X obj 689 66 r init;
#X obj 689 113 mtof;
#X obj 688 193 *~ 0.1;
#X obj 903 153 line~;
#X msg 903 130 \$1 5;
#X obj 843 169 *~;
#X obj 844 140 osc~;
#X obj 844 116 mtof;
#X obj 843 196 *~ 0.1;
#X obj 844 68 r init;
#X obj 287 113 r pdringmod1;
#X obj 440 106 r pdringmod2;
#X obj 595 109 r pdringmod3;
#X obj 748 105 r pdringmod4;
#X obj 903 108 r pdringmod5;
#X obj 1054 163 line~;
#X msg 1054 140 \$1 5;
#X obj 994 179 *~;
#X obj 995 150 osc~;
#X obj 995 79 r init;
#X obj 995 126 mtof;
#X obj 994 206 *~ 0.1;
#X obj 1209 166 line~;
#X msg 1209 143 \$1 5;
#X obj 1149 182 *~;
#X obj 1150 153 osc~;
#X obj 1148 129 mtof;
#X obj 1149 209 *~ 0.1;
#X obj 1150 81 r init;
#X obj 1209 121 r pdringmod7;
#X obj 1054 118 r pdringmod6;
#X msg 228 96 62;
#X msg 381 89 64;
#X msg 536 92 65;
#X msg 689 88 67;
#X msg 844 91 69;
#X msg 995 101 71;
#X msg 1150 104 72;
#X connect 0 0 2 1;
#X connect 1 0 0 0;
#X connect 2 0 11 0;
#X connect 3 0 2 0;
#X connect 4 0 5 0;
#X connect 6 0 7 0;
#X connect 7 0 8 0;
#X connect 8 0 3 0;
#X connect 10 0 1 0;
#X connect 11 0 9 0;
#X connect 11 0 9 1;
#X connect 12 0 14 1;
#X connect 13 0 12 0;
#X connect 14 0 17 0;
#X connect 15 0 14 0;
#X connect 16 0 15 0;
#X connect 17 0 9 0;
#X connect 17 0 9 1;
#X connect 18 0 68 0;
#X connect 19 0 21 1;
#X connect 20 0 19 0;
#X connect 21 0 25 0;
#X connect 22 0 21 0;
#X connect 23 0 69 0;
#X connect 24 0 22 0;
#X connect 25 0 9 0;
#X connect 25 0 9 1;
#X connect 26 0 28 1;
#X connect 27 0 26 0;
#X connect 28 0 31 0;
#X connect 29 0 28 0;
#X connect 30 0 29 0;
#X connect 31 0 9 0;
#X connect 31 0 9 1;
#X connect 32 0 70 0;
#X connect 33 0 35 1;
#X connect 34 0 33 0;
#X connect 35 0 39 0;
#X connect 36 0 35 0;
#X connect 37 0 71 0;
#X connect 38 0 36 0;
#X connect 39 0 9 0;
#X connect 39 0 9 1;
#X connect 40 0 42 1;
#X connect 41 0 40 0;
#X connect 42 0 45 0;
#X connect 43 0 42 0;
#X connect 44 0 43 0;
#X connect 45 0 9 0;
#X connect 45 0 9 1;
#X connect 46 0 72 0;
#X connect 47 0 13 0;
#X connect 48 0 20 0;
#X connect 49 0 27 0;
#X connect 50 0 34 0;
#X connect 51 0 41 0;
#X connect 52 0 54 1;
#X connect 53 0 52 0;
#X connect 54 0 58 0;
#X connect 55 0 54 0;
#X connect 56 0 73 0;
#X connect 57 0 55 0;
#X connect 58 0 9 0;
#X connect 58 0 9 1;
#X connect 59 0 61 1;
#X connect 60 0 59 0;
#X connect 61 0 64 0;
#X connect 62 0 61 0;
#X connect 63 0 62 0;
#X connect 64 0 9 0;
#X connect 64 0 9 1;
#X connect 65 0 74 0;
#X connect 66 0 60 0;
#X connect 67 0 53 0;
#X connect 68 0 16 0;
#X connect 69 0 24 0;
#X connect 70 0 30 0;
#X connect 71 0 38 0;
#X connect 72 0 44 0;
#X connect 73 0 57 0;
#X connect 74 0 63 0;
